<?xml version="1.0" standalone="no"?>
<!DOCTYPE svg PUBLIC "-//W3C//DTD SVG 1.1//EN" "http://www.w3.org/Graphics/SVG/1.1/DTD/svg11.dtd" >
<svg>
<metadata>
Created by FontForge 20090622 at Thu Jul 19 15:56:02 2018
 By deploy user
Freeware! from A. Carr    Remember to vote! If you don't vote, you can't bitch!
</metadata>
<defs>
<font id="Croissant" horiz-adv-x="1896" >
  <font-face 
    font-family="Croissant"
    font-weight="400"
    font-stretch="normal"
    units-per-em="4096"
    panose-1="0 11 0 0 0 0 0 0 0 0"
    ascent="3276"
    descent="-820"
    x-height="2023"
    cap-height="3064"
    bbox="-553 -958 2920 3482"
    underline-thickness="50"
    underline-position="-75"
    unicode-range="U+0020-U+007E"
  />
<missing-glyph horiz-adv-x="3072" 
d="M512 0v2560h2048v-2560h-2048zM2494 66v2428h-1916v-2428h1916z" />
    <glyph glyph-name=".notdef" horiz-adv-x="3072" 
d="M512 0v2560h2048v-2560h-2048zM2494 66v2428h-1916v-2428h1916z" />
    <glyph glyph-name=".null" horiz-adv-x="0" 
 />
    <glyph glyph-name="nonmarkingreturn" horiz-adv-x="0" 
 />
    <glyph glyph-name="grave" unicode="`" horiz-adv-x="1311" 
d="M586 2970q69 45 168 45q188 0 303 -213q110 -213 110 -418q0 -213 -192 -254q-131 4 -242 106q-110 103 -180 254q-70 148 -90 279q12 135 123 201z" />
    <glyph glyph-name="one" unicode="1" horiz-adv-x="1544" 
d="M942 3072q193 0 262 -160q70 -159 78 -426v-295q0 -872 -106 -1806q-17 -192 -58 -287q-41 -98 -180 -98q-90 0 -135 66q-49 65 -70 167q-24 99 -37 160q-24 135 -57 615q-25 385 -25 639v114q-77 -102 -335 -114q-168 12 -283 102t-115 258q0 139 94 320q74 139 246 319
t368.5 303t352.5 123z" />
    <glyph glyph-name="two" unicode="2" horiz-adv-x="2310" 
d="M737 3056q54 16 176 16q209 0 435 -111q221 -110 221 -307q0 -49 -37 -86t-90 -41q-225 82 -283 82q-160 0 -221 -78q-66 -77 -184 -286q-119 -213 -226 -263q-77 -32 -176 -45q-164 13 -258 115t-94 258q0 299 213 500t524 246zM1663 2478q168 -37 168 -455
q0 -233 -45 -401q-57 -197 -184 -319q-127 -127 -332 -287q-209 -164 -230 -242q50 17 144 17q73 0 196 -17q123 -16 172 -20q25 8 66 8q70 20 147 74q66 45 111 45h12q66 -13 66 -193q0 -282 -189 -467q-192 -188 -479 -221h-24q-123 0 -299 66q-197 69 -308 69h-8
q-98 -4 -229 -69q-111 -58 -185 -58h-24q-291 25 -291 361q0 286 184 581q107 164 402 381l565 410q270 192 340 332q21 36 66 184q41 143 77 192q25 33 70 33q20 0 41 -4z" />
    <glyph glyph-name="three" unicode="3" horiz-adv-x="2290" 
d="M528 2007q-36 -4 -69 -4q-340 0 -434 332q-5 32 -9 65l-16 58q12 295 254 454q242 160 545 160q196 0 417.5 -57.5t385.5 -192.5q86 -61 86 -176q0 -53 -29 -86t-74 -33q-221 74 -311 74q-66 0 -98 -8q-156 -45 -209 -115q-58 -74 -103 -197q-49 -127 -110 -192
q-66 -66 -226 -82zM1794 2466q94 0 148 -103q45 -86 45 -213q0 -28 -5 -61q-12 -160 -65 -246t-139 -172q364 -250 364 -758q0 -413 -323 -663q-328 -250 -738 -250q-278 0 -516 123q-237 119 -389 340q-151 221 -168 495q0 209 152 209h24q70 -8 144 -118q69 -111 143 -177
q74 -65 242 -81h37q168 0 294 102q136 111 156 283q4 41 4 73q0 62 -20 94q-37 46 -135 140q-103 90 -107 155q0 99 70 164q69 66 196 78q189 25 275 107q82 81 119 180q32 98 77 200q41 99 115 99z" />
    <glyph glyph-name="four" unicode="4" horiz-adv-x="2449" 
d="M1561 3072q168 0 266 -123q94 -123 131 -283q24 -131 24 -217v-41q0 -340 -57 -667.5t-110 -556.5q40 0 57 -8q20 0 94 12t107 12q90 0 135 -94q41 -98 41 -209q0 -123 -41 -242q-45 -123 -111 -184q-98 -86 -393 -86q-12 -188 -37 -287q-29 -98 -156 -98q-69 4 -102 78
q-37 69 -45 135q-12 61 -29 172q-213 25 -385 25h-164q-36 -4 -131 -9l-192 -16q-131 16 -184 33q-119 41 -197 147q-78 103 -82 266v41q0 287 111 553q118 283 315 529t446 454q33 33 86 33q103 0 115 -123q-4 33 -4 66q0 139 41 282q45 177 160 291q110 115 291 115z
M1081 2241q-225 -394 -307 -1057h467q-33 114 -65 377z" />
    <glyph glyph-name="five" unicode="5" horiz-adv-x="2626" 
d="M1696 3064q86 -25 135 -139.5t49 -245.5q0 -230 -151.5 -381.5t-385.5 -175.5q-122 8 -315 61q-197 49 -299 49t-147 -53q-50 -57 -78 -164q0 -37 16 -106q17 -70 17 -103q0 -53 -91 -77q-12 -5 -24 -5q-94 0 -234 201q-159 225 -172 451v28q0 246 197 447
q209 213 475 213q131 0 348 -58q213 -61 332 -61q70 0 180 66q94 53 135 53h13zM598 1720q53 160 520 160q242 0 451 -78q209 -82 327 -258q201 -287 201 -622q0 -304 -164 -541q-168 -238 -463 -324q-139 -37 -397 -49q-774 45 -1167 430q-82 82 -82 185q0 106 110 106
q78 0 279 -53q197 -58 332 -62q213 21 356 152q139 127 139 344q0 229 -159 377q-29 29 -123 74q-99 45 -135 77q-29 21 -29 58q0 12 4 24z" />
    <glyph glyph-name="six" unicode="6" horiz-adv-x="2335" 
d="M1217 3056q16 4 28 8h41q86 0 147.5 -41t61.5 -127q0 -78 -53 -160q-295 -491 -451 -913q-37 -99 -73 -209q-41 -115 -62 -197q-25 -82 -33 -184q37 -299 377 -328q160 13 254 115q90 102 90 262q0 119 -57 213q-45 74 -127 123l-148 86q-69 33 -86 82q-4 16 -4 33
q0 82 115 131q139 57 291 57q188 -4 340 -147q147 -144 225 -357q74 -213 74 -438q0 -299 -135 -561q-140 -262 -402 -410q-180 -94 -504 -94q-508 0 -782 250q-164 151 -250 389q-86 233 -94 504q12 205 66 401q135 430 462 914q328 483 689 598z" />
    <glyph glyph-name="seven" unicode="7" horiz-adv-x="2249" 
d="M295 3072q102 0 188 -16q86 -21 185 -54q98 -36 168 -49q69 -16 196 -16q66 0 185 57q118 53 192 53q229 0 229 -454v-94q-4 -33 -8 -74q-90 -520 -315 -1245q-230 -729 -332 -996q-53 -184 -152 -184h-8q-37 0 -73.5 41t-36.5 86q4 270 37 532q28 259 81 635
q50 377 58 578q-66 -25 -193 -41q-90 4 -221 45q-135 37 -180 37h-16q-86 0 -197 -49q-123 -58 -217 -78q-25 -4 -45 -4q-144 0 -209 164q-82 188 -82 454v49q0 287 192 459q189 164 558 164h16z" />
    <glyph glyph-name="eight" unicode="8" horiz-adv-x="2335" 
d="M569 1454q-483 410 -487 770q8 119 29 217q82 316 372 471q291 152 627 152q188 0 377 -62q188 -65 311 -196q123 -135 123 -332q0 -143 -61 -270q-66 -131 -160 -205q-86 -70 -164 -70h-16q299 -147 446 -385q139 -233 139 -590v-24q-8 -398 -258 -660
q-250 -266 -696 -270h-86q-258 0 -442 41q-213 45 -353 180q-139 135 -213 402q-8 32 -12 86q-4 49 -12 98q4 213 102 369q98 151 225 225q99 57 172 57q21 0 37 -4zM623 1409v-41q0 -49 -37 -188.5t-41 -196.5q8 -16 8 -41q25 -86 111 -147q86 -66 192 -74q123 0 188 57
q62 53 62 135t-41 136q-66 86 -229 208q-168 123 -213 152zM1470 1962q-4 12 -4 25l-12 36q0 29 21 127q20 95 20 148q0 106 -86 172q-82 57 -176 57h-25q-98 0 -159 -53q-66 -53 -74 -139q24 -103 102 -164q74 -66 184.5 -115z" />
    <glyph glyph-name="nine" unicode="9" horiz-adv-x="2335" 
d="M561 -8h-57q-135 0 -135 123v20q20 148 65 283q41 131 107 274q61 144 135 299q69 152 98 242l62 151q41 107 73 222q29 114 29 200q0 140 -111 234q-110 94 -258 94q-159 0 -250 -102q-90 -103 -102 -263q12 -106 62 -208q53 -74 135 -123q78 -49 143 -86q66 -37 82 -78
q8 -25 8 -45q0 -78 -110 -123q-140 -57 -295 -57q-291 12 -467 307q-176 291 -176 635q0 290 155 549q152 258 414 397q213 102 520 102q217 0 413.5 -57t323.5 -172q164 -152 250 -393.5t86 -511.5q0 -185 -57 -394q-90 -290 -307 -634.5t-455 -593.5q-237 -254 -381 -291z
" />
    <glyph glyph-name="zero" unicode="0" horiz-adv-x="2601" 
d="M1208 3064q201 -8 377 -82q176 -78 176 -246q0 -90 -57 -156q-57 -69 -135 -86q-25 0 -148 45.5t-221 45.5q-262 0 -409 -263q-152 -262 -160 -544q4 -197 82 -361q73 -168 184 -250q102 -73 279 -86q262 13 413 226q148 209 148 487q0 98 -29 246q-33 147 -37 184
q-4 25 -4 49q0 82 53 156q66 90 176 90q238 0 369 -455q53 -196 53 -495q0 -398 -102 -762q-111 -348 -422 -574q-315 -225 -635 -225q-319 0 -581 156q-267 155 -402 467q-147 364 -160 778q17 647 361 1143q164 229 381 373q217 139 450 139z" />
    <glyph glyph-name="hyphen" unicode="-" 
d="M217 1864h1385q86 0 147 -58q57 -61 57 -143q0 -78 -61.5 -143.5t-142.5 -65.5h-1385q-86 0 -147.5 65.5t-61.5 143.5q0 82 62 143q57 58 147 58z" />
    <glyph glyph-name="equal" unicode="=" 
d="M217 1864h1385q86 0 147 -58q57 -61 57 -143q0 -78 -61.5 -143.5t-142.5 -65.5h-1385q-86 0 -147.5 65.5t-61.5 143.5q0 82 62 143q57 58 147 58zM217 2535h1385q86 0 147 -57q57 -61 57 -143t-61 -144q-62 -61 -143 -61h-1385q-86 0 -147 61q-62 62 -62 144t62 143
q57 57 147 57z" />
    <glyph glyph-name="q" unicode="q" horiz-adv-x="2327" 
d="M1319 1737q70 278 369 295q114 0 208 -90q91 -95 119 -205q33 -131 33 -410q0 -590 -119 -1360q-61 -332 -127 -520q-69 -192 -184 -192q-78 4 -139.5 188t-98.5 471q-41 287 -45 479q-41 -123 -200 -233q-160 -115 -365 -119q-356 12 -561 336q-209 319 -209 704
q0 262 94 492q90 225 275 360q159 115 381 115h57q143 -4 291 -102q143 -99 221 -209zM1327 496l-53 655q-135 123 -316 123q-110 0 -184 -53q-74 -58 -115 -152q-41 -98 -45 -188q29 -344 283 -377q53 4 160 37q102 28 176 28q61 0 94 -73z" />
    <glyph glyph-name="w" unicode="w" horiz-adv-x="2601" 
d="M336 2056q102 0 184 -151q82 -156 180 -410q99 -254 185 -369q57 -82 135 -82q29 0 61 13q0 49 -20 233q-25 185 -29 332q21 217 66 324q45 102 205 102q172 0 237 -160q66 -159 160 -491t180 -332v0q94 4 123 118.5t49 344.5q21 229 70 352q45 119 176 135h24
q152 0 152 -278v-82q0 -365 -147 -1008q-148 -647 -496 -647q-131 0 -270.5 176t-249.5 402q-49 -172 -209 -377q-160 -201 -295 -201h-8q-172 4 -316 217q-147 209 -241 512q-99 299 -144 574q-41 233 -41 344v32q37 377 279 377z" />
    <glyph glyph-name="e" unicode="e" horiz-adv-x="1794" 
d="M897 2048q205 -8 369 -82q159 -74 237 -217q53 -98 53 -225q0 -58 -12 -123q-37 -193 -201 -307q-163 -115 -360 -136q-102 9 -164 58q-53 37 -53 90q0 12 4 29q8 36 114.5 126.5t106.5 225.5q0 201 -192 201q-156 0 -238 -172q-82 -177 -90 -357q12 -147 57 -229
q115 -234 439 -250q135 12 209 49q86 41 192 102q107 58 160 58q119 0 119 -168q0 -143 -78 -311q-78 -172 -258.5 -291t-462.5 -119h-25q-327 0 -512 127q-188 131 -250 340q-61 209 -61 475q8 508 233 811q222 295 656 295h8z" />
    <glyph glyph-name="r" unicode="r" horiz-adv-x="1487" 
d="M721 1552q0 -249 -41 -671q-37 -389 -94 -631q-62 -242 -209 -242q-139 0 -197 221q-61 217 -114 652q-29 307 -41 553q20 319 73 467q54 147 279 147q143 0 241 -115q95 -118 95 -278q24 168 118 282q95 111 234 111q152 0 258 -111q102 -114 102 -315q0 -197 -98 -319
q-98 -127 -246 -127q-135 0 -233 106q-103 102 -127 270z" />
    <glyph glyph-name="t" unicode="t" horiz-adv-x="1462" 
d="M721 2785q258 0 332 -131q65 -119 65 -409v-70h17q151 0 204 -66q54 -73 54 -270v-41q0 -119 -45 -184q-54 -78 -213 -78q0 -33 -54 -438q-53 -410 -143 -754q-94 -344 -217 -344q-90 0 -156 143q-65 144 -114 373q-50 225 -82.5 516l-57.5 496q-159 0 -221 74
q-65 69 -74 237q0 197 58 270q53 74 221 74v49q0 295 86 418q90 135 340 135z" />
    <glyph glyph-name="y" unicode="y" horiz-adv-x="1974" 
d="M426 -848q-274 0 -406 184q-131 181 -131 414q0 107 33 197q29 86 78 86h20q41 0 66 -13q29 -16 90 -61q57 -49 94 -65q33 -17 107 -21h8q61 0 164 74q102 78 115 119q-123 86 -263 319q-139 233 -249 496q-111 258 -144 438q-16 147 -16 266q0 463 295 463h57l41 -8
q119 -21 193 -160q69 -139 151 -385q78 -246 131 -348q53 -107 148 -107q98 0 139 127q41 123 86 377t98 377q53 119 164 119q152 0 152 -185v-61q-50 -385 -115.5 -778t-196.5 -823q-135 -435 -360 -730q-230 -299 -549 -311z" />
    <glyph glyph-name="u" unicode="u" horiz-adv-x="2023" 
d="M561 2056q144 0 144 -192q0 -107 -46 -283q-49 -176 -53 -278q17 -443 324 -455h8q160 0 229 119q74 123 74 315q0 57 -16 168q-17 106 -33 188q-21 78 -41 160q4 107 66 180q61 70 151 70q160 0 303 -381q144 -385 144 -762q0 -368 -259 -631q-262 -266 -634 -266h-9
q-266 0 -503 197q-242 196 -324 459q-16 81 -29 241q9 381 152 766q139 385 352 385z" />
    <glyph glyph-name="i" unicode="i" horiz-adv-x="922" 
d="M438 2056q246 0 340 -213t94 -491q0 -13 -24 -234q-25 -303 -148 -708q-122 -410 -262 -410q-131 0 -262 410q-135 405 -151 688q-13 213 -17 237q4 29 17 242q12 201 135 340t278 139zM410 3072q168 0 299 -135t131 -311q0 -177 -131 -308q-136 -135 -299 -135
q-168 0 -287 131q-123 131 -123 312q0 184 123 315q119 131 287 131z" />
    <glyph glyph-name="o" unicode="o" horiz-adv-x="1855" 
d="M938 2023q131 0 279 -65q143 -70 143 -197q0 -73 -78 -98q-4 0 -98 37q-99 37 -234 37q-159 0 -245 -107q-82 -98 -82 -246v-24q0 -152 94 -254q94 -107 241 -107q168 0 275 111q90 90 90 250q0 24 -4 49q0 61 -8 86q12 111 82 135l16 8h16q111 0 193 -184
q94 -209 94 -549q0 -299 -94 -495q-78 -152 -168 -242t-209 -127q-123 -41 -283 -41q-241 0 -442 115q-205 110 -283 295q-77 188 -90 462q9 287 99 549q86 262 270 434q180 168 426 168z" />
    <glyph glyph-name="p" unicode="p" horiz-adv-x="2400" 
d="M799 1761q82 111 229 209q148 98 283 103h41q237 0 405 -119q185 -135 279 -361q94 -229 94 -487q0 -180 -49 -356q-53 -181 -160 -336q-106 -156 -250 -250q-147 -94 -328 -98q-192 4 -356 118q-164 111 -205 234q-8 -369 -82 -754q-77 -385 -196 -385q-111 0 -180 193
q-74 188 -131 520q-119 729 -119 1233q0 405 37 536q24 99 118 193q90 94 201 94q127 0 234 -74q106 -78 135 -213zM791 512q40 82 98 82q57 0 172 -33q115 -37 156 -41q135 17 208 127q70 111 70 250q0 164 -90 283q-90 114 -254 114q-172 0 -303 -118l-17 -226
q-16 -176 -24 -274q-12 -98 -16 -164z" />
    <glyph glyph-name="bracketleft" unicode="[" horiz-adv-x="1495" 
d="M713 1520q0 -459 -74 -922h377q151 0 237 -33q82 -33 131 -127q41 -90 41 -254v-32q0 -304 -241 -304q-283 0 -504 222q-225 221 -455 569q-209 340 -225 881q16 532 225 872q496 791 959 791q241 0 241 -304v-32q0 -164 -41 -250q-49 -98 -131 -131q-86 -33 -237 -33
h-377q74 -455 74 -913z" />
    <glyph glyph-name="bracketright" unicode="]" horiz-adv-x="1495" 
d="M713 1520q12 479 78 913h-381q-144 0 -230 33t-131 131q-41 86 -41 250v32q0 304 225 304q484 0 967 -791q217 -352 234 -872q-9 -328 -140 -680q-135 -353 -381 -619q-249 -266 -561 -356q-65 -17 -119 -17q-225 0 -225 304v32q0 164 41 254q45 94 131 127t230 33h381
q-66 442 -78 922z" />
    <glyph glyph-name="backslash" unicode="\" horiz-adv-x="1647" 
d="M1520 496q8 -33 8 -111q0 -123 -66 -225q-69 -107 -188 -144q-66 -16 -123 -16q-123 0 -221 74q-103 73 -139 188l-725 2306q-5 29 -13 61.5l-12 49.5q4 123 82 229q74 103 188 139q66 17 115 17q127 0 233 -70q103 -74 132 -192z" />
    <glyph glyph-name="a" unicode="a" horiz-adv-x="2056" 
d="M578 2040q45 8 151 8q344 0 479 -295q29 123 123 213q78 74 197 74h33q262 -12 303 -352q24 -201 24 -414q0 -287 -73 -713q-46 -287 -86 -422q-46 -139 -160 -139q-66 0 -107 94q-45 90 -73 230q-33 135 -37 139q-148 -463 -615 -463q-237 0 -422 143q-184 140 -266 426
q-49 168 -49 447q0 360 135 667q135 304 443 357zM930 1528q-127 -8 -234 -115q-102 -106 -102 -262v-8q8 -160 111 -262q98 -107 225 -107q86 8 168 53q82 41 119 123q-21 127 -41 467q-78 111 -218 111h-28z" />
    <glyph glyph-name="s" unicode="s" horiz-adv-x="1409" 
d="M614 2048q103 0 230 -41q127 -45 213 -127q57 -57 57 -127q0 -29 -8 -57q-16 -45 -53 -54q-37 -12 -111 -20q-135 0 -172 -70q-8 -16 -8 -36q0 -86 139 -263q176 -221 258 -344q78 -127 82 -389v-16q0 -303 -176 -402q-184 -102 -512 -102q-152 0 -352.5 86t-200.5 233
q0 160 102 160q29 0 111 -20.5l82 -20.5q57 8 106 49q45 37 45 99q0 78 -147 291q-152 213 -225 368q-62 119 -62 283q0 45 4 90q17 233 168 332q152 98 430 98z" />
    <glyph glyph-name="d" unicode="d" horiz-adv-x="1999" 
d="M1454 3039q434 0 434 -729q0 -1192 -233 -2158q-41 -177 -152 -177q-78 0 -119 95q-45 94 -65 233l-37 201l-37 -131q-28 -103 -86 -189q-61 -90 -168 -147q-110 -62 -278 -62q-328 0 -520.5 274.5t-192.5 749.5q0 471 180 754q176 279 451 279q225 -4 327 -74
q99 -70 132 -238q-54 308 -66 746l12 135q0 41 4 94q21 144 131 246q111 98 283 98zM1098 1622q-13 -49 -58 -61q-163 41 -192 41q-320 0 -352 -410q16 -451 344 -504q127 4 225 82q98 74 135 197q-12 41 -57 348q-45 303 -45 307z" />
    <glyph glyph-name="f" unicode="f" horiz-adv-x="1159" 
d="M528 1425q103 0 217 -307q111 -311 197 -737q82 -430 90 -676q0 -328 -119 -483q-122 -160 -385 -160q-508 0 -520 643q0 197 49 475q49 279 136 582q81 299 172 483q86 180 163 180zM258 1946q115 -21 348 -41q58 4 168 28q107 21 176 21q140 0 140 -160
q-25 -311 -603 -332q-237 13 -360 49q-127 33 -127 185q0 106 49 180q45 70 152 70h57zM528 3080q193 0 303 -106q111 -107 111 -340q0 -246 -131 -463t-283 -217q-151 0 -290 217q-144 217 -144 463q0 446 434 446z" />
    <glyph glyph-name="g" unicode="g" horiz-adv-x="2040" 
d="M774 2056q45 4 86 4h41q57 -4 135 -12q74 -12 201 -25q123 -12 188 -16q217 16 328 41h21q45 0 77 -29q37 -41 37 -123q0 -135 -106 -229q-111 -98 -254 -106q69 -21 135 -205.5t66 -405.5v-127q-21 -221 -209 -372q-189 -156 -480 -181q131 -12 246 -86
q111 -78 184 -209q74 -131 74 -278q0 -156 -69.5 -307.5t-208.5 -249.5q-144 -98 -344 -98q-263 4 -435 213q-147 176 -147 385q0 36 4 73q29 246 201 397.5t368 159.5q-323 0 -581 217q-262 213 -266 553v17q0 454 200 708q205 258 508 291zM1454 1561q-147 0 -242 28
q-98 29 -172 33h-16q-127 0 -217 -98q-102 -111 -111 -242h9v-8q0 -144 81 -246q82 -106 246 -106h8q287 0 287 413q8 140 21 176q12 33 106 50zM958 49q-77 0 -131 -61q-53 -62 -53 -131q0 -66 57 -123q54 -62 127 -62q82 0 140 58q53 53 53 127q0 49 -25 94q-24 45 -65 74
q-45 24 -103 24z" />
    <glyph glyph-name="h" unicode="h" horiz-adv-x="2032" 
d="M410 3080q188 0 299 -135q106 -139 106 -336v-86q-4 -33 -8 -74q-66 -815 -152 -1331q127 361 328 688q193 316 360 316h17q213 -17 319 -299q107 -287 176 -672q41 -356 41 -463q0 -278 -86 -524t-315 -246q-131 0 -160 62q-32 61 -61 253q-17 136 -74 361
q-61 225 -110 356q-37 107 -123 107q-74 0 -144 -107q-82 -127 -192.5 -450.5t-126.5 -364.5q-62 -160 -160 -160q-70 0 -115 226q-45 221 -82 585l-81 824q-25 258 -50 798q21 324 82 500q62 172 312 172z" />
    <glyph glyph-name="j" unicode="j" horiz-adv-x="897" 
d="M418 3072q168 0 286.5 -127t118.5 -311q0 -189 -118.5 -320t-286.5 -131q-176 0 -295 131q-123 131 -123 320q0 188 123 315q119 123 295 123zM410 2064q229 0 315 -209q82 -208 82 -479q0 -155 -8 -286q-13 -132 -29 -320q-20 -188 -25 -352q-36 -414 -122 -762
q-91 -352 -205 -352q-119 0 -213 344q-94 340 -123 770q-16 205 -33 364q-16 160 -24.5 270.5t-16.5 315.5q33 324 103 512q65 184 299 184z" />
    <glyph glyph-name="k" unicode="k" horiz-adv-x="2216" 
d="M688 1274q53 151 336 380.5t528 344.5q50 24 103 24q123 0 205 -81q77 -87 77 -205q0 -164 -90 -217.5t-315 -130.5q-225 -82 -283 -189q115 -49 189 -151q69 -107 192 -394q103 -217 189 -290q82 -74 159 -95q74 -24 86 -61q9 -25 9 -45q0 -82 -115 -119
q-139 -45 -287 -45q-241 0 -393 156q-156 155 -328 458q-176 299 -286 410q0 -8 -95 -614q-65 -410 -184 -410h-8q-66 0 -98 139q-37 135 -86 439q-46 360 -91 901q-49 540 -53 839q8 303 73.5 487.5t303.5 184.5q131 0 221 -78q86 -78 127 -196.5t41 -241.5
q0 -340 -127 -1200z" />
    <glyph glyph-name="l" unicode="l" horiz-adv-x="864" 
d="M664 1106q-17 -62 -50 -348q-36 -291 -45 -348q-65 -410 -184 -410h-8q-66 0 -98 139q-37 135 -86 439q-46 360 -91 901q-49 540 -53 839q12 250 33 381q16 127 98 250q78 123 250 123q131 0 221 -98q86 -99 127 -238q37 -143 37 -262q0 -225 -20 -438q-21 -217 -66 -500
t-65 -430z" />
    <glyph glyph-name="semicolon" unicode=";" horiz-adv-x="1008" 
d="M418 2159q172 0 299 -123q123 -127 123 -291q0 -172 -123 -299t-299 -127t-295 127q-123 123 -123 299q0 160 127 287t291 127zM713 -74q-58 -127 -152 -217q-98 -94 -201 -94q-61 0 -114 49q-58 45 -70 111q4 45 53 110q50 66 50 99v16q-99 0 -181 115q-82 110 -98 221
q12 188 122.5 298.5t287.5 110.5q180 0 299 -110q114 -115 114 -299q0 -160 -110 -410z" />
    <glyph glyph-name="quotesingle" unicode="'" horiz-adv-x="1016" 
d="M713 2241q-66 -123 -160 -218q-98 -98 -201 -102q-164 33 -184 152q8 61 90 184q8 16 12 20v13v20q-114 33 -192 135q-78 99 -78 217q0 164 119 283t282 119q115 0 213 -53q99 -54 156 -148q53 -98 53 -217q0 -164 -110 -405z" />
    <glyph glyph-name="z" unicode="z" horiz-adv-x="1786" 
d="M295 2048q176 -8 512 -25q303 17 442 17q144 0 144 -135q0 -58 -9 -90q-20 -86 -520 -1041q0 -4 -16 -20q8 -9 57 -9h45q94 0 230 21q176 25 188 25q90 0 135 -62q41 -65 41 -258q0 -311 -201 -393q-188 -78 -593 -78h-78q-86 0 -176 4q-95 0 -197 21q-106 20 -176 77
q-70 54 -90 156q8 98 94 287q90 180 315 545q226 364 320 462q-156 -32 -209 -41q-524 62 -545 377q12 160 254 160h33z" />
    <glyph glyph-name="x" unicode="x" horiz-adv-x="2306" 
d="M0 1839q8 189 336 209h49q184 0 348 -102q185 -123 303 -275q115 -155 140 -192q94 151 127 331q32 181 106 222q49 16 86 16q131 0 197 -86q61 -86 61 -217q0 -176 -82 -324q-86 -147 -287 -356q21 -90 271 -619q20 -36 69 -77q45 -45 78 -70t58 -57q20 -33 20 -70v-12
q-20 -144 -242 -160h-16q-332 0 -541 188q-217 189 -417 582q-91 -98 -144 -283q-57 -184 -102 -344q-25 -69 -78 -106t-115 -37h-8q-217 0 -217 225q0 201 176 512q176 307 352 439q-36 188 -135 294q-102 103 -250 209q-143 103 -143 160v0z" />
    <glyph glyph-name="c" unicode="c" horiz-adv-x="1921" 
d="M905 2048q205 0 205 -111q0 45 94 82q90 37 156 37q131 0 245.5 -106.5t114.5 -270.5q0 -155 -106 -254q-107 -98 -254 -106q-119 0 -217 98q-99 99 -103 262q9 58 17 90q4 33 8 70q-172 -98 -238 -242q-69 -143 -106 -364q8 -229 119 -373q106 -147 311 -164h16
q115 0 230 82q119 86 164 86q69 0 110 -57t41 -135q0 -185 -139 -344.5t-344 -241.5q-197 -78 -365 -78h-16q-320 4 -529 189q-213 184 -278 516q-12 65 -33 245q8 426 250 746q238 315 647 344z" />
    <glyph glyph-name="v" unicode="v" horiz-adv-x="1745" 
d="M258 2048q111 -12 184 -139q70 -127 156 -373q82 -250 147 -365q62 -114 152 -114q98 0 143 127q41 123 86 377t95 376q49 119 163 119q160 0 160 -217v-33q-8 -196 -131 -647q-123 -454 -307 -807q-188 -352 -410 -352q-151 4 -336 287q-188 282 -315 639
q-131 352 -139 528v57q0 537 295 537h57z" />
    <glyph glyph-name="b" unicode="b" horiz-adv-x="2015" 
d="M311 3064q238 0 336 -164t98 -414q0 -192 -12 -385q-16 -192 -45 -356q33 172 127 237q94 66 320 74q282 0 462 -274q172 -271 172 -733v-25q0 -479 -188 -750q-192 -274 -524 -274q-168 0 -275 61q-106 62 -159.5 144t-81.5 184q-33 98 -45 139q-29 -151 -70 -340
q-45 -188 -164 -188q-110 0 -151 176q-230 1000 -230 2151q0 737 430 737zM680 1647l-57 -373q-29 -197 -45 -283q32 -123 131 -196q94 -74 221 -82q168 24 254 164q82 135 82 331q0 172 -90 295q-91 119 -263 119q-32 0 -94 -16q-61 -17 -90 -21q-37 12 -49 62z" />
    <glyph glyph-name="n" unicode="n" horiz-adv-x="1913" 
d="M360 2048q328 0 328 -545v-123l-8 -94q94 287 266 524q168 234 373 238q184 0 287 -172q98 -172 130.5 -389t32.5 -447v-90q0 -299 -98 -598q-98 -303 -303 -344h-20q-82 0 -127 115q-50 127 -99 397q-49 271 -98 414q-49 139 -143 139q-66 0 -115 -110
q-49 -115 -135 -373t-160 -385q-74 -131 -192 -131q-250 0 -271 1208q0 107 8 242q4 135 33 254q25 118 103 196q77 74 208 74z" />
    <glyph glyph-name="m" unicode="m" horiz-adv-x="2937" 
d="M569 2048h9q192 0 241 -172q45 -180 70 -533q37 246 147 476q107 225 324 229h8q107 0 172 -98q70 -103 123 -258l106 -349q99 299 218 500q114 201 311 205h8q135 0 217 -127q82 -135 139 -319q140 -414 140 -979q0 -263 -95 -435q-94 -176 -258 -180h-20q-90 0 -143 33
q-62 37 -82 102q-21 62 -37 168q-33 316 -144 557q-98 201 -204 201q-21 0 -41 -4q45 -279 45 -520q0 -516 -328 -545h-33q-78 0 -139 33q-78 41 -90 127q-8 45 -33 344q-24 295 -57 438q-29 123 -86 123h-17q-45 -12 -102 -156q-61 -143 -119 -344l-106 -372
q-45 -119 -152 -119h-8q-107 0 -168 229q-156 541 -168 1114l16 209q9 103 37 201q29 98 102.5 159.5t196.5 61.5z" />
    <glyph glyph-name="comma" unicode="," horiz-adv-x="1008" 
d="M713 -74q-58 -123 -152 -217t-201 -94q-61 0 -114 49q-58 45 -70 111q4 45 53 110q50 66 50 99q0 4 -70 49q-184 102 -209 311q4 102 61 205q58 98 152 151q94 54 205 54q110 0 205 -54q94 -53 147 -147q53 -98 53 -209q0 -151 -110 -418z" />
    <glyph glyph-name="period" unicode="." horiz-adv-x="881" 
d="M426 840q164 0 291 -123q123 -127 123 -299t-123 -295t-291 -123q-176 0 -299 123q-127 119 -127 295t127 299t299 123z" />
    <glyph glyph-name="slash" unicode="/" horiz-adv-x="1655" 
d="M66 496l725 2306q36 118 139 192q98 70 221 70q57 0 123 -17q123 -36 192 -139q70 -102 70 -229q0 -45 -16 -111l-729 -2306q-29 -115 -132 -188q-106 -74 -233 -74q-49 0 -115 16q-254 78 -270 361q12 61 25 119z" />
    <glyph glyph-name="space" unicode=" " horiz-adv-x="950" 
 />
    <glyph glyph-name="asciitilde" unicode="~" 
d="M905 1184q62 -45 135 -58q58 13 66 33q127 225 311 225q86 0 160 -53q70 -57 111 -139q41 -86 41 -176q0 -152 -107 -275q-106 -127 -254 -143q-151 8 -561 217q-74 41 -127 41t-86 -65q-98 -181 -283 -193q-143 4 -229 111q-90 102 -90 249q0 164 106 291
q103 127 262 127q250 0 545 -192z" />
    <glyph glyph-name="exclam" unicode="!" horiz-adv-x="950" 
d="M905 2241q0 -328 -127 -898q-131 -573 -332 -573q-192 0 -311 553q-123 553 -135 926q0 348 82 585q78 238 364 238q254 0 356.5 -209t102.5 -487v-135zM446 770q160 0 275 -111q110 -114 110 -274q0 -164 -110.5 -274.5t-274.5 -110.5q-155 0 -266 115
q-114 110 -114 270q0 156 114 270q115 115 266 115z" />
    <glyph glyph-name="at" unicode="@" horiz-adv-x="2953" 
d="M1286 2281q25 5 49 5q107 0 193 -50q102 -61 119 -188q36 123 86 188q49 62 163 62h9q221 0 262 -307q8 -86 8 -254q0 -107 -41 -611q-4 -45 -4 -82q0 -131 45 -139q94 8 209 250q110 238 110 492v16q0 328 -155 578q-164 253 -426 389q-266 131 -529 131
q-401 0 -712 -320q-312 -323 -320 -737q0 -385 86 -619q86 -237 283 -438q340 -323 901 -336q246 13 528 74q21 4 37 4q86 0 86 -102q0 -54 -28 -99q-33 -45 -95 -61q-417 -127 -696 -127q-315 0 -577.5 114.5t-458.5 340.5q-201 221 -299 512q-103 290 -103 655
q0 369 197 709q193 335 516 536q320 197 696 197q328 0 651.5 -180.5t528.5 -503.5q205 -328 205 -733v-9q0 -467 -258 -782q-258 -319 -537 -328q-213 13 -270 242q-4 8 -12 78q-13 70 -17 98q-4 17 -8 17l-4 -5q-139 -286 -475 -286h-37q-197 8 -328 188t-159 516
q-5 45 -5 90q0 250 131 496q152 291 455 319zM1425 1880q-98 0 -176 -86q-82 -90 -90 -209h8v-8q0 -111 70 -201q70 -94 188 -94q168 21 230 143q-4 41 -25 361q-37 82 -205 94z" />
    <glyph glyph-name="numbersign" unicode="#" horiz-adv-x="1794" 
d="M1462 528v-168q0 -176 -32 -266q-33 -94 -148 -94q-123 0 -156 98q-36 99 -36 262v168h-402v-176q0 -119 -8 -188q-12 -70 -57 -115q-45 -49 -127 -49q-131 0 -156 94q-29 90 -29 266v168h-94q-78 0 -119 70q-41 66 -41 299q0 238 41 299q37 61 111 61h94v541h-86
q-82 0 -119 62q-41 61 -41 299q0 245 41 307q37 61 119 61h94v185q0 167 41 262q41 90 168 90q107 0 139 -62q29 -61 29 -184v-106v-185h402v185q0 159 36 258q33 94 160 94t155.5 -86t28.5 -266v-185h82q82 0 123 -57q37 -62 37 -303q0 -250 -37 -307q-41 -62 -123 -62h-82
l-8 -541h90q86 0 123 -57t37 -303t-41 -307.5t-119 -61.5h-90zM1090 1257v541h-402v-541h402z" />
    <glyph glyph-name="dollar" unicode="$" horiz-adv-x="2159" 
d="M999 3482q168 0 222 -119q49 -123 61 -299q201 -45 360 -168q156 -127 156 -311q0 -74 -45 -115q-49 -45 -106 -53q-226 86 -271 86q-106 0 -188 -45q-82 -50 -98 -152q12 -131 167 -274q70 -66 304 -234q229 -172 319 -336q119 -172 119 -463v-57q-4 -233 -115 -426
q-110 -192 -262 -303q-156 -111 -336 -172q0 -225 -45 -340q-45 -119 -242 -119q-159 0 -213 99q-57 98 -65 253q8 17 8 58q-262 16 -508 147t-246 365q0 69 50 135q45 66 110 66q70 0 217 -50q144 -53 209 -57q369 90 369 332q0 110 -82 225q-86 115 -201 209l-217 172
q-336 328 -344 664v8q0 258 197 491q196 238 454 332q8 37 21 135q12 99 37 160q20 61 69 111q49 45 135 45z" />
    <glyph glyph-name="percent" unicode="%" horiz-adv-x="0" 
 />
    <glyph glyph-name="asciicircum" unicode="^" horiz-adv-x="1266" 
d="M1057 2400q-29 -20 -107 -33q-90 13 -135 58q-90 119 -164 201q-78 81 -139 86h-8q-53 0 -90 -41q-45 -45 -119 -160q-90 -135 -201 -144q-24 17 -37 17q-41 20 -57 82q8 98 143 303q226 311 418 311q127 -4 324 -192q192 -193 221 -287q4 -16 4 -74q0 -94 -53 -127z" />
    <glyph glyph-name="ampersand" unicode="&#x26;" horiz-adv-x="2912" 
d="M2167 2626v-41q0 -181 -94 -324q-111 -164 -275 -164q-102 0 -176 37q-78 33 -205 115q-131 78 -213 110q-53 21 -114 21q-33 0 -66 -4q-139 -21 -156 -103q-20 -82 -37 -172q-16 -94 -102 -110q-20 -4 -41 -4q-123 0 -164 94q-49 102 -94 319q4 221 135 369
q127 147 332 225q201 78 406 86q372 0 610 -94q237 -98 254 -360zM1217 1937q94 -20 196 -73q74 -41 74 -107q0 -20 -8 -45q-21 -61 -70 -82q-49 -24 -143 -37q-99 -16 -115 -24q-225 -103 -238 -303q13 -160 140 -250t307 -111q160 4 262 123q98 115 131 283
q53 336 520 336q197 0 340 -66q140 -70 140 -246q0 -266 -275 -295h-24q-95 0 -287 50q57 -144 57 -345q0 -213 -90 -344q-131 -204 -352 -303q-221 -98 -631 -98q-451 0 -799 287q-352 286 -352 762q0 274 156 479q155 201 405 311q250 107 504 107q111 0 152 -9z" />
    <glyph glyph-name="asterisk" unicode="*" horiz-adv-x="1610" 
d="M770 3064q57 0 98 -37q37 -41 37 -98v-295l201 196q33 41 111 41q61 0 94 -32q32 -29 32 -103q0 -65 -32 -94l-205 -209h295q57 0 98 -37q37 -41 37 -98q0 -49 -41 -94t-94 -45h-295l213 -205q33 -49 33 -99q0 -61 -41 -102q-49 -33 -103 -41q-73 17 -102 49l-201 201
v-291q0 -53 -41 -98t-94 -45q-139 0 -139 143v291l-213 -209q-17 -29 -99 -41q-69 17 -94 41q-32 33 -49 94q12 54 41 99l213 213h-295q-53 0 -94 45t-41 94q0 57 41 98q37 37 94 37h295l-221 221q-21 29 -33 82q17 74 49 103q41 40 94 40q58 0 91 -32l221 -213v295
q0 135 139 135z" />
    <glyph glyph-name="parenleft" unicode="(" horiz-adv-x="1479" 
d="M807 3105q262 184 467 184q45 0 86 -24.5t41 -81.5v-37q-29 -111 -119 -295l-172 -348q-102 -238 -143 -418q-45 -184 -54 -438q9 -54 9 -160q12 -176 49 -340t123 -406q86 -241 147 -389l119 -303q4 -12 8 -20v-29q0 -94 -143 -94q-95 4 -242 78q-147 69 -303 192
q-160 123 -242 225q-176 222 -286 500q-115 279 -127 541q0 94 -9 151q9 312 99 590q90 279 266 512q172 234 426 410z" />
    <glyph glyph-name="parenright" unicode=")" horiz-adv-x="1479" 
d="M606 3105q381 -254 590 -668q205 -418 205 -885q0 -307 -111 -606q-110 -303 -315 -545q-148 -176 -393 -331q-250 -160 -389 -164q-140 0 -152 94q16 33 16 49q238 582 340 909q99 328 99 697q0 258 -50 459q-49 196 -143 389l-164 348q-94 184 -123 295q0 20 -8 28
q12 82 74 107l24 8h29q115 0 254 -57q135 -58 217 -127z" />
    <glyph glyph-name="underscore" unicode="_" horiz-adv-x="2503" 
d="M262 -262h1872q115 0 188 -45q70 -45 70 -111v-37q0 -69 -70 -114q-73 -45 -188 -45h-1872q-102 0 -172 45q-74 45 -74 114v37q0 66 74 111q70 45 172 45z" />
    <glyph glyph-name="plus" unicode="+" 
d="M1090 1487v-529q0 -77 -50 -131q-53 -57 -135 -57q-86 0 -139 53q-53 54 -53 135v529h-520q-82 0 -136 53q-57 49 -57 131t57 135q54 49 136 49h520v529q0 78 53 135t139 57q82 0 135 -57q50 -61 50 -135v-529h528q78 0 135 -49q53 -53 53 -135t-53 -131
q-57 -53 -135 -53h-528z" />
    <glyph glyph-name="Q" unicode="Q" horiz-adv-x="3056" 
d="M1913 336q-348 -287 -672 -311q-53 -5 -106 -5q-258 0 -517 136q-311 163 -450 475q-148 381 -160 786q8 352 148 737q139 381 409 639q266 254 643 271q33 4 66 4q82 0 172 -21q127 -32 221 -110q94 -82 94 -193q0 -196 -184 -266q-45 0 -164 57q-119 58 -205 58
q-176 0 -303 -127q-131 -131 -196 -312q-70 -184 -78 -360q8 -287 139 -483.5t397 -220.5q267 12 422 221q156 205 156 483q0 53 -4 119q-8 61 -21 123q-16 57 -28 110q-17 54 -21 78q-4 21 -4 41q0 90 57 168q66 94 172 94q230 0 361 -430q70 -237 70 -553
q0 -684 -328 -1118q45 4 82 8q33 4 86 4q135 0 274 -65.5t225 -179.5q87 -119 87 -267q0 -164 -123 -270q-123 -111 -295 -111q-205 0 -340 168t-148 381q13 148 66 242z" />
    <glyph glyph-name="W" unicode="W" horiz-adv-x="3449" 
d="M2720 2839q127 -312 127 -918q0 -483 -99 -922q-98 -438 -286 -716q-193 -283 -455 -283q-168 0 -319 152q-152 147 -258 348q-107 196 -136 323q-73 -344 -180 -585q-110 -238 -336 -238h-8q-262 4 -442 229q-185 222 -275 586q-94 361 -94 778q0 365 74 701
q69 332 200 561q140 233 365 233q86 0 139 -65q54 -66 54 -160q0 -61 -5 -123l-8 -131l-16 -131q4 -340 86 -668q82 -327 143 -356q8 -4 17 -4q41 0 73 98q41 119 119 422q78 299 119 406q12 45 61 73q45 29 107 29q160 0 192 -151q111 -431 193 -676q70 -213 127 -213
q8 0 16 4q74 41 135 303q58 262 58 590q0 155 -33 442q-4 33 -4 62q0 114 65 172q78 69 181 69q237 -12 303 -241z" />
    <glyph glyph-name="E" unicode="E" horiz-adv-x="2560" 
d="M1999 2486q-57 -164 -246 -176q-53 0 -188 69.5t-222 69.5q-73 0 -122 -61q-54 -61 -62 -139q17 -107 86 -156q70 -49 189 -61q53 8 168 8q94 0 143 -74t49 -188q0 -275 -393 -291q-340 20 -586 225q-250 205 -254 529q25 352 279 589q250 234 610 234q229 0 405 -94
q177 -99 177 -316q0 -53 -33 -168zM1872 1200q65 33 94 33q74 0 115 -45t49 -123q8 -57 8 -115q0 -192 -74 -377q-94 -241 -319 -405t-569 -168q-562 0 -881.5 303t-319.5 815q0 287 111 660q37 106 119 188q74 74 147 74h8q70 0 132 -45q53 -45 53 -107v-8v-45
q0 -233 78 -414q86 -200 245 -315q160 -115 381 -123q303 12 623 217z" />
    <glyph glyph-name="R" unicode="R" horiz-adv-x="2478" 
d="M176 3072q160 0 225 -70q66 -69 78 -114q226 41 426 41q279 0 471 -82q164 -66 258 -262q95 -201 95 -443q0 -323 -181 -561q-180 -242 -516 -246q115 -16 225 -155q107 -140 238 -357q127 -221 160 -254q33 -32 110 -73q78 -45 119 -82q37 -37 37 -95q0 -155 -184 -237
q-189 -82 -369 -82q-287 0 -352 193q-90 266 -185 458q-98 189 -167 299q-74 107 -123 193q-54 86 -70 184q-12 -160 -61 -471q-50 -315 -66 -446q-12 -107 -16 -152q-9 -45 -29 -111q-20 -65 -53 -106q-37 -41 -103 -41q-151 0 -184 401q-16 234 -29 455q-12 217 -16 401
q-8 181 -20.5 410t-36.5 565v0q-9 0 -78 58q-82 65 -144 200q-61 136 -61 357q0 168 147 168q41 0 99 -29l106 -66q13 37 66 95q49 57 184 57zM545 2183l-21 -332q-12 -200 -37 -426q29 91 86 131q58 37 185 91q123 49 188 110q62 58 62 164q0 262 -312 262h-151z" />
    <glyph glyph-name="T" unicode="T" horiz-adv-x="2535" 
d="M74 3023q86 41 262 41q164 0 471 -49q278 -45 385 -45h16q82 0 234 45q147 41 246 41q139 0 233 -82q78 -74 78 -197v-33q-8 -250 -53 -389q-45 -143 -201 -266q-119 -90 -402 -107q-118 9 -253 17q-140 8 -209 8q336 -41 336 -479q0 -311 -54 -598q-53 -291 -172 -787
q-37 -143 -168 -143h-16q-164 0 -209 160q-135 577 -197 1175q0 74 -8 119q17 242 86 397q66 156 258 156q-377 74 -475 74q-90 0 -217 -37q-127 -41 -172 -45q-217 33 -217 307q0 221 110.5 430t307.5 287z" />
    <glyph glyph-name="Y" unicode="Y" horiz-adv-x="2376" 
d="M74 3072q164 0 266 -164t201 -475q94 -311 151 -442q58 -131 164 -136l16 9q95 4 160 151q62 148 152 439q86 290 172 450t205 160q155 0 237 -103q82 -102 82 -274v-16q-4 -287 -102.5 -574t-180.5 -438q-86 -156 -270 -463t-217 -405q602 -25 602 -398
q0 -393 -799 -393q-352 0 -471 37q-123 33 -200 131q-78 119 -90 258q4 111 49 197q41 86 90 151l78 98l-217 353q-148 225 -258 442q-111 213 -168 410q-62 196 -62 417q0 254 94 418q95 160 316 160z" />
    <glyph glyph-name="U" unicode="U" horiz-adv-x="2408" 
d="M606 3047q33 17 82 17q78 0 123 -45t45 -123t-49 -160q-119 -201 -189 -467q-57 -229 -57 -450v-74q17 -340 139 -508q119 -168 349 -172q229 0 352 192q110 177 110 463v41q0 217 -135 635q-139 414 -159 508q28 152 159 152q86 0 111 -25q115 -65 229 -217
q111 -156 180 -328q201 -512 201 -966q0 -369 -123 -717q-127 -348 -385 -574q-258 -229 -631 -229q-503 0 -757 418q-258 418 -258 958q0 484 168 1008q188 549 495 663z" />
    <glyph glyph-name="I" unicode="I" horiz-adv-x="975" 
d="M438 3064h8q238 0 328 -172q90 -180 107 -508q4 -107 4 -221q0 -430 -70 -1000q-90 -725 -217 -1020q-12 -49 -57 -94q-49 -49 -103 -49q-41 8 -86 57q-49 49 -65 86q-119 320 -209 1033q-74 565 -74 995q0 110 4 213q8 295 111 487q102 193 319 193z" />
    <glyph glyph-name="O" unicode="O" horiz-adv-x="2601" 
d="M1208 3064q201 -8 377 -82q176 -78 176 -246q0 -90 -57 -156q-57 -69 -135 -86q-25 0 -148 45.5t-221 45.5q-262 0 -409 -263q-152 -262 -160 -544q4 -197 82 -361q73 -168 184 -250q102 -73 279 -86q262 13 413 226q148 209 148 487q0 98 -29 246q-33 147 -37 184
q-4 25 -4 49q0 82 53 156q66 90 176 90q238 0 369 -455q53 -196 53 -495q0 -398 -102 -762q-111 -348 -422 -574q-315 -225 -635 -225q-319 0 -581 156q-267 155 -402 467q-147 364 -160 778q17 647 361 1143q164 229 381 373q217 139 450 139z" />
    <glyph glyph-name="P" unicode="P" horiz-adv-x="2822" 
d="M799 2761q352 -33 651 -168t495.5 -381t196.5 -582q0 -307 -160 -553q-163 -250 -471 -340q-65 -12 -200 -24q-209 8 -398 78q-192 69 -208 159l-37 -323q-33 -246 -95 -434q-65 -193 -163 -193q-111 0 -172 160q-66 155 -91 327q-24 172 -36 328q-70 696 -70 1344
l-111 73q-114 74 -200 213q-74 123 -74 303v54q0 204 102 204q58 0 180.5 -45t180.5 -57q86 168 274 168q299 0 406 -311zM754 1888q-9 -135 -17 -389q-8 -258 -24 -475q20 82 86 82q53 0 176 -16q127 12 205 81q77 70 77 189q0 192 -143 323q-143 132 -360 205z" />
    <glyph glyph-name="braceleft" unicode="{" horiz-adv-x="2232" 
d="M848 1511q0 -32 90 -61q90 -33 135 -57.5t86 -98.5q25 -53 25 -151v-99q-4 -24 -8 -106l-17 -156q12 -184 127 -184q33 0 98 8q66 4 132 12q61 5 94 5q184 0 323 -136q140 -135 140 -319q0 -320 -242 -320l-29 9h-33q-294 118 -532 327t-393 484q-160 274 -213 581
q-99 -131 -262 -131q-144 0 -254 119q-115 119 -115 274q0 152 115 271q110 114 254 114q172 0 262 -127q53 291 217 574q160 283 401 496q238 208 520 319q17 4 29 8h33q242 0 242 -327q0 -189 -136 -304q-135 -118 -327 -143q-45 4 -144 21q-98 12 -180 12
q-127 0 -127 -193q0 -37 8 -86q4 -53 9 -98q4 -49 8 -82v-94q0 -94 -25 -143q-49 -103 -180 -144q-131 -45 -131 -74z" />
    <glyph glyph-name="braceright" unicode="}" horiz-adv-x="2241" 
d="M1217 1511q0 29 -132 74q-131 45 -180 144q-20 45 -33 159q5 45 9 98.5t8 98.5t8 74v82q0 184 -123 184q-82 0 -176 -12q-94 -17 -160 -21q-196 29 -323 143q-131 111 -131 304q0 327 233 327h45l25 -8q278 -106 524 -319q246 -218 410 -496q163 -283 204 -574
q91 127 271 127q139 0 253.5 -114.5t114.5 -270.5q0 -155 -114.5 -274t-253.5 -119q-172 0 -271 131q-65 -450 -381 -831q-319 -385 -757 -561h-29q-12 -4 -33 -9q-241 0 -241 320q0 184 131 319q131 136 323 136h90q29 -5 74 -9l90 -8q45 -8 82 -8q123 0 123 176v103
q-4 24 -8 106q-8 78 -17 152q13 114 33 159q37 74 82 98.5t139 57.5q91 29 91 61z" />
    <glyph glyph-name="bar" unicode="|" horiz-adv-x="815" 
d="M385 3080q160 0 279 -78q118 -77 118 -209q0 -335 -12 -622q-16 -291 -49 -688.5l-57 -679.5q-29 -283 -41 -516q-13 -119 -78 -201q-70 -86 -160 -86q-98 0 -164 86q-69 82 -78 201q-12 221 -32 491l-58 770q-37 496 -45 737.5t-8 507.5q0 123 119 205q114 82 266 82z
" />
    <glyph glyph-name="A" unicode="A" horiz-adv-x="2634" 
d="M647 807q98 192 418 192q291 0 389 -168q-41 148 -53 185q-98 459 -189 647q-90 184 -196 184h-8q-82 -4 -119 -102q-41 -98 -107 -397q-65 -304 -86 -373q0 -4 -16 -57q-16 -58 -33 -111zM639 680q-70 -680 -397 -680q-140 0 -185 94q-49 94 -57 250q4 62 25 209l16 135
v0q356 2359 1110 2368h8q352 0 610 -447q259 -455 402 -991q139 -537 196 -913q17 -164 17 -250q0 -447 -438 -447q-123 0 -197 66q-78 65 -127 184q-53 119 -82 254q-29 131 -45 193q0 -119 -123 -197t-307 -78q-180 0 -303 65.5t-123 184.5z" />
    <glyph glyph-name="S" unicode="S" horiz-adv-x="2208" 
d="M1049 3080q196 0 385 -106q188 -111 311 -295q33 -45 33 -119q0 -66 -45 -111q-50 -45 -111 -49q-127 62 -180 86q-53 25 -123 25q-86 0 -148 -57q-65 -62 -73 -156q32 -172 176 -316l319 -307q172 -168 238 -332q82 -213 82 -385q0 -376 -311 -634q-312 -263 -697 -316
q-65 0 -114 -8q-291 8 -570 160q-278 151 -278 409q0 70 53 103q49 33 115 33q77 0 245 -33q168 -37 222 -41q204 12 286 192q29 58 29 115q0 82 -57 160q-99 131 -385 454q-291 320 -316 455q-4 45 -12 102l-12 82q4 394 266 643q262 246 672 246z" />
    <glyph glyph-name="D" unicode="D" horiz-adv-x="2585" 
d="M1274 1798q-148 107 -250 107q-8 0 -41 -263l-65 -512q-37 -245 -95 -442q-28 -102 -45 -135q-20 -33 -82 -41q70 -16 193 -33q319 4 524 234q197 217 197 471v16q-13 213 -82.5 344t-253.5 254zM578 2904q24 66 110 123q74 45 143 45h25q193 -12 254 -102
q57 -91 82 -250q4 -8 151 -49q144 -45 308 -123q159 -78 331 -242t291 -426q86 -205 86 -446q0 -238 -69 -480q-74 -241 -193 -417q-336 -521 -1089 -537q-156 16 -217 16q-271 29 -521 230q-254 196 -262 315v8q0 49 33 90q37 46 86 46h8q82 0 234 -70q159 -78 200 -90
q-4 4 -16 28q-16 25 -16 58q-5 33 -9 49q-12 192 -36 434q-25 238 -41 500q-21 262 -21 516q0 12 -98 86q-103 74 -168 213q-58 115 -58 283q0 41 5 81q24 177 217 177q118 0 250 -66z" />
    <glyph glyph-name="F" unicode="F" horiz-adv-x="2527" 
d="M258 1999q-369 213 -369 627q0 106 53.5 200t151.5 94q37 0 242 -49q24 33 53 78t82 82t160 41q151 0 225 -53t102 -115q29 -65 41 -102h66q393 0 782 143q33 12 62 12q90 0 155 -90q86 -123 86 -307q0 -111 -16 -160q-49 -176 -192 -278q-148 -103 -316 -140
q-172 -40 -377 -57q-205 -16 -250 -29q-41 -217 -57 -409q16 16 29 37q12 16 45 45q28 24 82 45q53 16 151 24h25q131 0 246 -94q118 -106 118 -250q0 -151 -94 -217q-94 -65 -258 -102q-139 4 -237 94q-103 86 -119 156q-25 -287 -41 -525q-21 -237 -37 -364
q-21 -131 -74 -234q-53 -102 -147 -102q-193 0 -230 295q-32 197 -49 381q-16 180 -28.5 397l-28.5 499.5t-37 426.5z" />
    <glyph glyph-name="G" unicode="G" horiz-adv-x="2535" 
d="M225 2310q-24 25 -41 131q13 291 291 459q275 164 590 164q262 0 500 -135q233 -136 233 -385q0 -197 -172 -324q-139 -106 -295 -106q-41 0 -82 8q-78 8 -155 82q-82 69 -144 131q-61 57 -188 73q-17 5 -33 5q-94 0 -213 -74q-143 -86 -197 -90q-49 12 -94 61zM119 2200
q143 0 143 -152q0 -49 -29 -152q-86 -254 -98 -503q17 -443 291 -594q139 -74 336 -86q233 4 401 114q156 99 156 213v17q-94 -49 -311 -66q-181 17 -234 58q-102 90 -119 352q13 205 90 254q111 90 496 90q356 0 479 -98q62 -45 103 -250q41 -209 41 -447v-98
q-4 -37 -9 -78q-49 -336 -319 -553q-270 -221 -807 -221q-381 8 -651 184q-275 176 -438 623q-41 115 -41 303q0 377 163 733q164 357 357 357z" />
    <glyph glyph-name="H" unicode="H" horiz-adv-x="2281" 
d="M1368 1016q-8 -127 -98 -246q-86 -115 -213 -115h-8q-115 4 -197 123q-82 115 -107 238q-28 -238 -81 -520q-58 -287 -86 -361q-21 -57 -66 -98q-49 -45 -86 -45q-49 0 -90 45t-57 98q-82 246 -144 619q-65 372 -106 831q-33 352 -33 619q0 82 4 155q8 299 115 504
q106 201 311 201q250 0 344 -209t94 -438q0 -287 -41 -668q-45 -385 -69 -623q32 136 110 217q74 82 185 82q106 0 200 -94t119 -205q-94 881 -111 1250q0 225 78 458q78 230 344 230h9q208 0 323 -189q111 -192 119 -483q4 -70 4 -143q0 -430 -82 -1061
q-98 -746 -205 -1053q-57 -143 -151 -143q-86 0 -152 143q-94 242 -176 881z" />
    <glyph glyph-name="J" unicode="J" horiz-adv-x="1999" 
d="M1401 3064q205 0 307 -160q98 -164 98 -377q0 -684 -168 -1728v0q4 0 41 -25q41 -29 74 -82q33 -57 33 -139q0 -279 -291 -410q-295 -135 -606 -135h-45q-193 0 -385 62q-217 69 -365 237q-151 164 -151 438q0 160 118 291q119 131 283 131q86 0 139 -45q54 -49 115 -147
q57 -98 94 -135q33 -41 99 -58q110 9 200 99q74 77 74 200v37q-8 160 -49 594q-45 430 -49 737q0 103 -9 144q13 213 123 344q111 127 320 127z" />
    <glyph glyph-name="K" unicode="K" horiz-adv-x="2609" 
d="M848 1655q-57 -525 -115 -930q-61 -410 -135 -582q-12 -49 -61 -94q-54 -49 -107 -49q-49 4 -98 53t-70 90q-123 324 -209 1037q-73 594 -73 1040q0 86 4 164q32 680 446 680q258 0 352 -180q90 -181 90 -406v-344q0 -205 -8 -319q307 315 484 557q172 241 372 598
q58 94 168 94q156 0 250 -115t94 -278q0 -172 -90 -312q-94 -139 -237 -254q-148 -114 -324 -217q-180 -106 -299 -192q139 -21 270 -135q131 -119 217 -246q86 -131 172.5 -299l106.5 -209l82 -168q37 -78 74 -123q37 -49 77 -70q119 -45 119 -167q0 -115 -110 -193
q-115 -78 -226 -78q-41 -4 -82 -4q-450 0 -630 389q-131 266 -242 639q-111 369 -262 623z" />
    <glyph glyph-name="L" unicode="L" horiz-adv-x="2040" 
d="M360 3064q283 0 369 -209t86 -557q0 -561 -119 -1348q17 -176 111 -180q16 -4 37 -4q110 0 315 82q238 94 402 94q98 0 155 -78q53 -82 53 -192q0 -324 -299 -496q-303 -176 -655 -176q-328 0 -606 123q-283 123 -283 414q0 94 45 171.5t95 98.5q0 115 -29 332l-70 462.5
t-53 479.5q-16 192 -16 389v82q16 512 462 512z" />
    <glyph glyph-name="colon" unicode=":" horiz-adv-x="881" 
d="M426 840q164 0 291 -123q123 -127 123 -299t-123 -295t-291 -123q-176 0 -299 123q-127 119 -127 295t127 299t299 123zM418 2159q168 0 295 -123t127 -299t-119 -295q-123 -123 -303 -123t-299 118.5t-119 299.5q0 172 127 299q123 123 291 123z" />
    <glyph glyph-name="quotedbl" unicode="&#x22;" horiz-adv-x="1487" 
d="M1081 3072q140 0 238 -131t98 -315q0 -189 -94 -320t-233 -131q-140 0 -238 131t-98 320q0 180 98 315q94 131 229 131zM319 3072q140 0 238 -131t98 -315q0 -189 -94 -320t-233 -131q-140 0 -238 131t-98 320q0 184 98 315t229 131z" />
    <glyph glyph-name="Z" unicode="Z" horiz-adv-x="2384" 
d="M135 3006q58 58 135 58q17 0 193 -37t536 -41q74 0 299 41q226 37 324 37q119 0 209 -62q90 -61 90 -184q0 -57 -25 -106q-684 -1180 -880 -1721q82 -16 287 -33q315 13 528 82q82 17 106 17q177 0 177 -266q0 -283 -148 -521q-82 -135 -184 -196q-103 -66 -332 -66h-467
q-176 -4 -385 -8q-328 0 -451 82q-122 82 -139 221q-4 16 -4 37q0 70 33 172q41 135 98 258q53 123 144 303l151 311q53 107 270 488q213 381 250 463q-102 0 -159 -8q-717 40 -734 458q17 144 78 221z" />
    <glyph glyph-name="X" unicode="X" horiz-adv-x="2953" 
d="M-94 2736v17q0 118 184 208q193 95 373 111q37 4 74 4q217 0 389 -82q196 -94 323 -229q123 -139 197 -262q70 -123 90 -168q115 114 152 229q36 111 69 238q29 127 107 204q73 74 168 74q139 0 233 -86t94 -225q0 -291 -155 -504q-156 -217 -459 -471
q57 -532 163.5 -815t217.5 -385q110 -107 233 -148q123 -45 144 -77q24 -50 24 -107q0 -119 -172 -192q-147 -62 -327 -62h-62q-430 29 -741 365q-316 336 -471 803q-201 -234 -217 -529q8 -98 16 -213t8 -176q-12 -258 -319 -258q-316 0 -316 520q0 275 82 545
q66 209 172 365q103 155 238 286l135 131q-53 275 -176 418t-295 270q-172 123 -176 201z" />
    <glyph glyph-name="C" unicode="C" horiz-adv-x="2367" 
d="M2073 2544v-25q0 -168 -115 -324q-123 -167 -295 -172q-78 13 -135 54q-62 37 -139 110q-78 74 -140 111q-65 37 -151 37q-70 0 -201 -54q-135 -53 -217 -57l-98 33q-54 12 -82 49q-33 37 -37 94q12 172 143 312q180 159 422 262q242 98 459 98q250 -8 414 -131
q159 -123 172 -397zM418 2200q20 8 69 8q119 0 152 -119v-16q0 -50 -25 -189q-32 -176 -36 -291q32 -295 233 -471q201 -180 492 -200l118 16q54 4 86 8q29 4 70 12q70 13 205 103q131 90 192 90q74 0 111 -74q37 -78 37 -164q0 -114 -33 -233q-107 -365 -352 -520
q-246 -160 -639 -160q-402 0 -668 205q-270 205 -373 586q-45 172 -57 417q8 357 127 652q119 290 291 340z" />
    <glyph glyph-name="V" unicode="V" horiz-adv-x="2417" 
d="M446 3080q99 0 148 -41q45 -41 94 -143q33 -57 180 -561q144 -508 267 -807q118 -287 249 -287h9q106 4 176 270q69 267 123 693q49 422 61 499q33 168 94 271q58 98 193 98q209 0 209 -303q0 -197 -37 -488q-37 -294 -98 -610q-66 -319 -132 -553q-163 -590 -307 -852
q-143 -266 -450 -266q-287 0 -537 389q-250 385 -393 746q-209 577 -221 1216q20 361 81.5 545t290.5 184z" />
    <glyph glyph-name="B" unicode="B" horiz-adv-x="2777" 
d="M1032 2937q254 33 377 33q410 0 725 -140q315 -139 315 -487q0 -275 -266 -664q205 -131 279 -245q69 -115 82 -361v-37q0 -270 -168 -495q-185 -246 -480 -389q-294 -144 -577 -152h-25q-290 0 -536 106q-254 107 -590 390q-135 110 -152 295q25 167 177 167
q73 0 130.5 -24.5t151.5 -69.5q94 -49 139 -65q-65 78 -77 159q-50 295 -91 664q-40 365 -45 668q9 53 9 143q-271 152 -291 377q4 8 16 65q8 54 29 82q16 29 61 29q49 0 156 -25q106 -24 164 -24q123 135 229 135q180 -16 258 -135zM1528 2208q0 102 -82 126.5t-320 32.5
q-12 -200 -45 -487q-32 -287 -77 -553q-46 -270 -99 -446q-16 -119 -160 -127q111 -74 205 -74q58 -8 111 -8q192 0 315 102q160 131 160 332q0 123 -74 237q-73 111 -213 168q-57 21 -73 111q16 94 65 115q270 106 287 471z" />
    <glyph glyph-name="N" unicode="N" horiz-adv-x="2142" 
d="M393 3072h8q189 0 422 -274q234 -279 439 -668q200 -393 249 -602q9 74 9 241q0 160 -29 541t-29 410v24q0 176 49 254q50 82 177 82q131 -4 196 -196q66 -197 90 -418q25 -221 25 -352q0 -1041 -62 -1520q-32 -242 -110 -414q-82 -172 -217 -172h-8q-443 0 -820 1249
q-90 275 -184 295h-8q-70 0 -82 -49q-12 -53 -29 -246q0 -106 -8 -176q4 -139 37 -393q29 -254 29 -418q0 -270 -218 -270q-225 8 -278 586q-8 180 -25 508q-16 327 -16 516q0 606 86 1024q66 270 111 356q41 82 196 82z" />
    <glyph glyph-name="M" unicode="M" horiz-adv-x="3166" 
d="M135 2122q131 397 287 676q156 274 434 274q131 0 274 -143q144 -148 250 -336q103 -193 140 -344q77 274 249 549q168 274 373 274q193 0 348 -225q156 -226 258 -529q103 -303 123 -438q49 -299 49 -631q0 -577 -159 -979q-119 -270 -283 -270q-156 0 -225 102
q-62 86 -62 193v24q4 66 4 136q0 188 -32 405q-45 295 -123 512q-78 213 -135 230h-13q-61 0 -98 -107q-41 -119 -106.5 -385t-118.5 -397q-37 -99 -176 -115q-127 12 -176 115q-54 98 -152 397q-102 299 -143 410q-37 94 -82 94q-9 0 -17 -4q-159 -49 -176 -905
q8 -136 8 -394q0 -110 -86 -209q-86 -102 -184 -102q-106 0 -184 66q-82 61 -107 167q-94 517 -94 943q0 540 135 946z" />
    <glyph glyph-name="less" unicode="&#x3c;" horiz-adv-x="1630" 
d="M1368 2224q127 -61 127 -184q0 -86 -86 -127q-70 -37 -287 -111q-217 -73 -348 -139q-135 -66 -135 -135q0 -74 127 -152q123 -78 324 -155l294 -123q111 -58 111 -156q0 -102 -82 -143q-86 -45 -213 -62q-139 17 -192 33q-1008 369 -1008 750v8q4 168 193 319
q184 148 409 242t397 143q131 33 193 33q82 0 176 -41z" />
    <glyph glyph-name="greater" unicode="&#x3e;" horiz-adv-x="1630" 
d="M184 2224q74 41 160 41q78 0 209 -33q299 -78 651 -266q352 -192 357 -438q0 -168 -185 -324q-188 -155 -409 -258q-226 -102 -422 -176q-139 -29 -185 -33q-127 17 -204 58q-82 36 -99 147q13 115 119 156l328 131q168 69 295 147q123 78 123 152q-4 69 -123 131
q-119 57 -348 139q-234 82 -299 115q-91 45 -103 135q12 127 135 176z" />
    <glyph glyph-name="question" unicode="?" horiz-adv-x="2208" 
d="M-446 2007q-107 119 -107 320q0 356 311 557q279 180 607 180h65q254 -12 467 -86q209 -78 328 -209q94 -94 94 -225q0 -58 -33 -107t-94 -61v8h-8q-58 4 -197 74q-143 69 -242 69q-90 0 -184 -49q-94 -53 -119 -147q-28 -95 -53 -205q-29 -111 -131 -189
q-127 -90 -299 -106q-242 12 -405 176zM1335 2310q168 -16 168 -364q0 -500 -246 -779q-131 -147 -282 -217q-156 -73 -381 -135q115 -8 217 -123q98 -114 111 -274v-33q0 -156 -111 -262q-123 -123 -324 -123q-176 0 -286 127q-107 119 -107 262v21q0 147 82 262
q82 110 217 143q-33 0 -57 -8q-344 16 -344 274q0 168 90 238q94 74 242 115q147 36 282 73t307 164q74 58 131 164q54 102 99 225q45 119 90 193q37 57 86 57h16z" />
  </font>
</defs>
</svg>
