<?xml version="1.0" encoding="utf-8"?>
<!-- Generator: Adobe Illustrator 16.0.0, SVG Export Plug-In . SVG Version: 6.00 Build 0)  -->
<!DOCTYPE svg PUBLIC "-//W3C//DTD SVG 1.1//EN" "http://www.w3.org/Graphics/SVG/1.1/DTD/svg11.dtd">
<svg version="1.1" id="yellow" xmlns="http://www.w3.org/2000/svg" xmlns:xlink="http://www.w3.org/1999/xlink" x="0px" y="0px"
	 width="32px" height="32px" viewBox="0 0 32 32" enable-background="new 0 0 32 32" xml:space="preserve">
<g>
	<g>
		<path d="M19.741,2.425l-7.482,0V1.803c0-0.777,0.629-1.406,1.406-1.406h4.668c0.777,0,1.407,0.629,1.407,1.406V2.425z"/>
	</g>
	<g>
		<polygon fill="#ffff00" points="18.041,0.823 19.368,1.383 19.696,2.113 18.041,1.662 		"/>
	</g>
	<g>
		<polygon fill="#" points="13.96,0.823 12.633,1.382 12.303,2.113 13.96,1.662 		"/>
	</g>
	<g>
		<g>
			<g>
				<rect x="20.283" y="5.946" width="1.102" height="0.187"/>
			</g>
		</g>
		<g>
			<path d="M21.082,5.946c0,0-0.14,0.87,0.9,0.87c1.042,0,0.056-0.87-0.598-0.87H21.082z"/>
		</g>
	</g>
	<g>
		<g>
			<g>
				<rect x="10.615" y="5.946" width="1.102" height="0.186"/>
			</g>
		</g>
		<g>
			<path d="M10.918,5.946c0,0,0.14,0.87-0.901,0.87s-0.055-0.87,0.598-0.87H10.918z"/>
		</g>
	</g>
	<g>
		<path d="M20.724,9.978l-0.378-1.119V3.271c0.009-0.43-0.193-0.838-0.543-1.091l-1.251-0.797H16l-2.55,0L12.199,2.18
			c-0.35,0.253-0.552,0.661-0.544,1.091v5.588l-0.379,1.119v0.838H16h4.724V9.978z"/>
	</g>
	<g>
		<rect x="11.919" y="10.816" width="8.161" height="3.435"/>
	</g>
	<g>
		<rect x="12.584" y="11.565" fill="#ffff00" width="6.832" height="2.686"/>
	</g>
	<g>
		<path d="M18.521,1.274c-0.074-0.267-0.318-0.451-0.596-0.451H16h-1.925c-0.276,0-0.52,0.184-0.595,0.451l-1.117,3.522l3.637,0
			h3.638L18.521,1.274z"/>
	</g>
	<g>
		<path d="M16.765,1.541c-0.022-0.246-0.096-0.417-0.18-0.417H16h-0.585c-0.083,0-0.158,0.17-0.181,0.417l-0.339,3.255l1.105,0
			h1.104L16.765,1.541z"/>
	</g>
	<g>
		<polygon fill="#ffff00" points="19.638,4.796 16,4.796 12.363,4.796 11.919,6.381 16,6.381 20.08,6.381 		"/>
	</g>
	<g>
		<polygon points="20.346,8.859 11.655,8.859 11.919,6.381 20.08,6.381 		"/>
	</g>
	<g>
		<polygon points="11.655,8.859 11.919,8.859 20.346,8.859 20.724,9.978 20.724,10.816 11.275,10.816 11.275,9.978 		"/>
	</g>
	<g>
		<rect x="11.275" y="9.978" width="9.448" height="0.838"/>
	</g>
	<g opacity="0.5">
		<polygon fill="#ffff00" points="20.08,6.381 19.638,4.796 16,4.796 16,6.381 		"/>
	</g>
	<g>
		<g>
			<rect x="11.275" y="12.22" width="9.448" height="18.626"/>
		</g>
		<g>
			<rect x="11.919" y="13.039" fill="#ffff00" width="8.185" height="16.991"/>
		</g>
		<g>
			<path d="M20.357,30.846h-8.715v0.041c0,0.396,0.278,0.716,0.623,0.716h7.47c0.343,0,0.622-0.32,0.622-0.716V30.846z"/>
		</g>
		<g>
			<rect x="12.495" y="30.233" fill="#ffff00" width="0.989" height="1.137"/>
		</g>
	</g>
	<g>
		<rect x="15.854" y="13.642" width="0.317" height="15.605"/>
	</g>
	<g>
		<rect x="16.678" y="13.642" width="0.317" height="15.605"/>
	</g>
	<g>
		<rect x="17.504" y="13.642" width="0.316" height="15.605"/>
	</g>
	<g>
		<rect x="18.327" y="13.642" width="0.318" height="15.605"/>
	</g>
	<g>
		<rect x="19.154" y="13.642" width="0.315" height="15.605"/>
	</g>
	<g>
		<rect x="15.028" y="13.642" width="0.317" height="15.605"/>
	</g>
	<g>
		<rect x="14.204" y="13.642" width="0.316" height="15.605"/>
	</g>
	<g>
		<rect x="13.378" y="13.642" width="0.317" height="15.605"/>
	</g>
	<g>
		<rect x="12.554" y="13.642" width="0.317" height="15.605"/>
	</g>
</g>
</svg>


